<mxfile host="Electron" agent="Mozilla/5.0 (Macintosh; Intel Mac OS X 10_15_7) AppleWebKit/537.36 (KHTML, like Gecko) draw.io/24.7.17 Chrome/128.0.6613.36 Electron/32.0.1 Safari/537.36" version="24.7.17">
  <diagram name="Page-1" id="1WE568LWMVHtuKM3JDja">
    <mxGraphModel dx="-811" dy="588" grid="1" gridSize="10" guides="1" tooltips="1" connect="1" arrows="1" fold="1" page="1" pageScale="1" pageWidth="827" pageHeight="1169" background="none" math="1" shadow="0">
      <root>
        <mxCell id="0" />
        <mxCell id="1" parent="0" />
        <mxCell id="pY1jZxHgJ3CI3KXNFTr0-70" value="" style="group" parent="1" vertex="1" connectable="0">
          <mxGeometry x="2020" y="130" width="70" height="80" as="geometry" />
        </mxCell>
        <mxCell id="pY1jZxHgJ3CI3KXNFTr0-71" value="" style="rounded=0;whiteSpace=wrap;html=1;fillColor=#f8cecc;strokeColor=#b85450;" parent="pY1jZxHgJ3CI3KXNFTr0-70" vertex="1">
          <mxGeometry width="10" height="80" as="geometry" />
        </mxCell>
        <mxCell id="pY1jZxHgJ3CI3KXNFTr0-72" value="" style="rounded=0;whiteSpace=wrap;html=1;fillColor=#f8cecc;strokeColor=#b85450;" parent="pY1jZxHgJ3CI3KXNFTr0-70" vertex="1">
          <mxGeometry x="10" y="10" width="10" height="60" as="geometry" />
        </mxCell>
        <mxCell id="pY1jZxHgJ3CI3KXNFTr0-73" value="" style="rounded=0;whiteSpace=wrap;html=1;fillColor=#f8cecc;strokeColor=#b85450;" parent="pY1jZxHgJ3CI3KXNFTr0-70" vertex="1">
          <mxGeometry x="20" y="20" width="10" height="40" as="geometry" />
        </mxCell>
        <mxCell id="pY1jZxHgJ3CI3KXNFTr0-74" value="" style="rounded=0;whiteSpace=wrap;html=1;fillColor=#f8cecc;strokeColor=#b85450;" parent="pY1jZxHgJ3CI3KXNFTr0-70" vertex="1">
          <mxGeometry x="30" y="30" width="10" height="20" as="geometry" />
        </mxCell>
        <mxCell id="pY1jZxHgJ3CI3KXNFTr0-75" value="" style="rounded=0;whiteSpace=wrap;html=1;fillColor=#f8cecc;strokeColor=#b85450;" parent="pY1jZxHgJ3CI3KXNFTr0-70" vertex="1">
          <mxGeometry x="40" y="20" width="10" height="40" as="geometry" />
        </mxCell>
        <mxCell id="pY1jZxHgJ3CI3KXNFTr0-76" value="" style="rounded=0;whiteSpace=wrap;html=1;fillColor=#f8cecc;strokeColor=#b85450;" parent="pY1jZxHgJ3CI3KXNFTr0-70" vertex="1">
          <mxGeometry x="50" y="10" width="10" height="60" as="geometry" />
        </mxCell>
        <mxCell id="pY1jZxHgJ3CI3KXNFTr0-77" value="" style="rounded=0;whiteSpace=wrap;html=1;fillColor=#f8cecc;strokeColor=#b85450;" parent="pY1jZxHgJ3CI3KXNFTr0-70" vertex="1">
          <mxGeometry x="60" width="10" height="80" as="geometry" />
        </mxCell>
        <mxCell id="pY1jZxHgJ3CI3KXNFTr0-83" value="" style="group" parent="1" vertex="1" connectable="0">
          <mxGeometry x="2290" y="130" width="70" height="80" as="geometry" />
        </mxCell>
        <mxCell id="pY1jZxHgJ3CI3KXNFTr0-84" value="" style="rounded=0;whiteSpace=wrap;html=1;fillColor=#f8cecc;strokeColor=#b85450;" parent="pY1jZxHgJ3CI3KXNFTr0-83" vertex="1">
          <mxGeometry width="10" height="80" as="geometry" />
        </mxCell>
        <mxCell id="pY1jZxHgJ3CI3KXNFTr0-85" value="" style="rounded=0;whiteSpace=wrap;html=1;fillColor=#f8cecc;strokeColor=#b85450;" parent="pY1jZxHgJ3CI3KXNFTr0-83" vertex="1">
          <mxGeometry x="10" y="10" width="10" height="60" as="geometry" />
        </mxCell>
        <mxCell id="pY1jZxHgJ3CI3KXNFTr0-86" value="" style="rounded=0;whiteSpace=wrap;html=1;fillColor=#f8cecc;strokeColor=#b85450;" parent="pY1jZxHgJ3CI3KXNFTr0-83" vertex="1">
          <mxGeometry x="20" y="20" width="10" height="40" as="geometry" />
        </mxCell>
        <mxCell id="pY1jZxHgJ3CI3KXNFTr0-87" value="" style="rounded=0;whiteSpace=wrap;html=1;fillColor=#f8cecc;strokeColor=#b85450;" parent="pY1jZxHgJ3CI3KXNFTr0-83" vertex="1">
          <mxGeometry x="30" y="30" width="10" height="20" as="geometry" />
        </mxCell>
        <mxCell id="pY1jZxHgJ3CI3KXNFTr0-88" value="" style="rounded=0;whiteSpace=wrap;html=1;fillColor=#f8cecc;strokeColor=#b85450;" parent="pY1jZxHgJ3CI3KXNFTr0-83" vertex="1">
          <mxGeometry x="40" y="20" width="10" height="40" as="geometry" />
        </mxCell>
        <mxCell id="pY1jZxHgJ3CI3KXNFTr0-89" value="" style="rounded=0;whiteSpace=wrap;html=1;fillColor=#f8cecc;strokeColor=#b85450;" parent="pY1jZxHgJ3CI3KXNFTr0-83" vertex="1">
          <mxGeometry x="50" y="10" width="10" height="60" as="geometry" />
        </mxCell>
        <mxCell id="pY1jZxHgJ3CI3KXNFTr0-90" value="" style="rounded=0;whiteSpace=wrap;html=1;fillColor=#f8cecc;strokeColor=#b85450;" parent="pY1jZxHgJ3CI3KXNFTr0-83" vertex="1">
          <mxGeometry x="60" width="10" height="80" as="geometry" />
        </mxCell>
        <mxCell id="pY1jZxHgJ3CI3KXNFTr0-92" value="&#xa;" style="group" parent="1" vertex="1" connectable="0">
          <mxGeometry x="1740" y="130" width="70" height="80" as="geometry" />
        </mxCell>
        <mxCell id="pY1jZxHgJ3CI3KXNFTr0-93" value="" style="rounded=0;whiteSpace=wrap;html=1;fillColor=#f8cecc;strokeColor=#b85450;" parent="pY1jZxHgJ3CI3KXNFTr0-92" vertex="1">
          <mxGeometry width="10" height="80" as="geometry" />
        </mxCell>
        <mxCell id="pY1jZxHgJ3CI3KXNFTr0-94" value="" style="rounded=0;whiteSpace=wrap;html=1;fillColor=#f8cecc;strokeColor=#b85450;" parent="pY1jZxHgJ3CI3KXNFTr0-92" vertex="1">
          <mxGeometry x="10" y="10" width="10" height="60" as="geometry" />
        </mxCell>
        <mxCell id="pY1jZxHgJ3CI3KXNFTr0-95" value="" style="rounded=0;whiteSpace=wrap;html=1;fillColor=#f8cecc;strokeColor=#b85450;" parent="pY1jZxHgJ3CI3KXNFTr0-92" vertex="1">
          <mxGeometry x="20" y="20" width="10" height="40" as="geometry" />
        </mxCell>
        <mxCell id="pY1jZxHgJ3CI3KXNFTr0-96" value="" style="rounded=0;whiteSpace=wrap;html=1;fillColor=#f8cecc;strokeColor=#b85450;" parent="pY1jZxHgJ3CI3KXNFTr0-92" vertex="1">
          <mxGeometry x="30" y="30" width="10" height="20" as="geometry" />
        </mxCell>
        <mxCell id="pY1jZxHgJ3CI3KXNFTr0-97" value="" style="rounded=0;whiteSpace=wrap;html=1;fillColor=#f8cecc;strokeColor=#b85450;" parent="pY1jZxHgJ3CI3KXNFTr0-92" vertex="1">
          <mxGeometry x="40" y="20" width="10" height="40" as="geometry" />
        </mxCell>
        <mxCell id="pY1jZxHgJ3CI3KXNFTr0-98" value="" style="rounded=0;whiteSpace=wrap;html=1;fillColor=#f8cecc;strokeColor=#b85450;" parent="pY1jZxHgJ3CI3KXNFTr0-92" vertex="1">
          <mxGeometry x="50" y="10" width="10" height="60" as="geometry" />
        </mxCell>
        <mxCell id="pY1jZxHgJ3CI3KXNFTr0-99" value="" style="rounded=0;whiteSpace=wrap;html=1;fillColor=#f8cecc;strokeColor=#b85450;" parent="pY1jZxHgJ3CI3KXNFTr0-92" vertex="1">
          <mxGeometry x="60" width="10" height="80" as="geometry" />
        </mxCell>
        <mxCell id="F7V0XHEb_DyPJBrBkUIh-5" style="edgeStyle=orthogonalEdgeStyle;rounded=0;orthogonalLoop=1;jettySize=auto;html=1;entryX=0.5;entryY=0;entryDx=0;entryDy=0;" parent="1" source="pY1jZxHgJ3CI3KXNFTr0-109" target="tjQHPkJ3rP1CHwiMBpwy-109" edge="1">
          <mxGeometry relative="1" as="geometry" />
        </mxCell>
        <mxCell id="pY1jZxHgJ3CI3KXNFTr0-109" value="$$\hat{\epsilon}_{T}$$" style="text;html=1;align=center;verticalAlign=middle;whiteSpace=wrap;rounded=0;fontSize=18;" parent="1" vertex="1">
          <mxGeometry x="1840" y="160" width="20" height="20" as="geometry" />
        </mxCell>
        <mxCell id="F7V0XHEb_DyPJBrBkUIh-3" style="edgeStyle=orthogonalEdgeStyle;rounded=0;orthogonalLoop=1;jettySize=auto;html=1;entryX=0.5;entryY=0;entryDx=0;entryDy=0;" parent="1" source="pY1jZxHgJ3CI3KXNFTr0-113" target="tjQHPkJ3rP1CHwiMBpwy-119" edge="1">
          <mxGeometry relative="1" as="geometry" />
        </mxCell>
        <mxCell id="pY1jZxHgJ3CI3KXNFTr0-113" value="$$\hat{\epsilon}_{t}$$" style="text;html=1;align=center;verticalAlign=middle;whiteSpace=wrap;rounded=0;fontSize=18;" parent="1" vertex="1">
          <mxGeometry x="2110" y="160" width="20" height="20" as="geometry" />
        </mxCell>
        <mxCell id="yzG6jV1Aqq2Yb8oF7Ht_-13" style="edgeStyle=orthogonalEdgeStyle;rounded=0;orthogonalLoop=1;jettySize=auto;html=1;entryX=0.5;entryY=0;entryDx=0;entryDy=0;exitX=0.5;exitY=1;exitDx=0;exitDy=0;" edge="1" parent="1" source="pY1jZxHgJ3CI3KXNFTr0-115" target="yzG6jV1Aqq2Yb8oF7Ht_-12">
          <mxGeometry relative="1" as="geometry">
            <Array as="points">
              <mxPoint x="2390" y="190" />
              <mxPoint x="2379" y="190" />
            </Array>
          </mxGeometry>
        </mxCell>
        <mxCell id="pY1jZxHgJ3CI3KXNFTr0-115" value="$$\hat{\epsilon}_{1}$$" style="text;html=1;align=center;verticalAlign=middle;whiteSpace=wrap;rounded=0;fontSize=18;" parent="1" vertex="1">
          <mxGeometry x="2380" y="160" width="20" height="20" as="geometry" />
        </mxCell>
        <mxCell id="pY1jZxHgJ3CI3KXNFTr0-150" value="$$\hat{\mathbf{x}}_{0}$$" style="ellipse;whiteSpace=wrap;html=1;aspect=fixed;fontSize=18;fillColor=default;" parent="1" vertex="1">
          <mxGeometry x="2400" y="200" width="40" height="40" as="geometry" />
        </mxCell>
        <mxCell id="pY1jZxHgJ3CI3KXNFTr0-280" style="edgeStyle=orthogonalEdgeStyle;rounded=0;orthogonalLoop=1;jettySize=auto;html=1;entryX=0;entryY=0.25;entryDx=0;entryDy=0;" parent="1" target="pY1jZxHgJ3CI3KXNFTr0-93" edge="1">
          <mxGeometry relative="1" as="geometry">
            <mxPoint x="1720" y="150.02857142857135" as="sourcePoint" />
          </mxGeometry>
        </mxCell>
        <mxCell id="pY1jZxHgJ3CI3KXNFTr0-279" value="$$T$$" style="text;html=1;align=center;verticalAlign=middle;whiteSpace=wrap;rounded=0;fontSize=14;" parent="1" vertex="1">
          <mxGeometry x="1700" y="135" width="20" height="30" as="geometry" />
        </mxCell>
        <mxCell id="pY1jZxHgJ3CI3KXNFTr0-299" style="edgeStyle=orthogonalEdgeStyle;rounded=0;orthogonalLoop=1;jettySize=auto;html=1;entryX=0;entryY=0.25;entryDx=0;entryDy=0;" parent="1" source="pY1jZxHgJ3CI3KXNFTr0-281" target="pY1jZxHgJ3CI3KXNFTr0-71" edge="1">
          <mxGeometry relative="1" as="geometry" />
        </mxCell>
        <mxCell id="pY1jZxHgJ3CI3KXNFTr0-281" value="$$t$$" style="text;html=1;align=center;verticalAlign=middle;whiteSpace=wrap;rounded=0;fontSize=14;" parent="1" vertex="1">
          <mxGeometry x="1980" y="135" width="20" height="30" as="geometry" />
        </mxCell>
        <mxCell id="pY1jZxHgJ3CI3KXNFTr0-310" style="edgeStyle=orthogonalEdgeStyle;rounded=0;orthogonalLoop=1;jettySize=auto;html=1;entryX=0;entryY=0.25;entryDx=0;entryDy=0;" parent="1" source="pY1jZxHgJ3CI3KXNFTr0-284" target="pY1jZxHgJ3CI3KXNFTr0-84" edge="1">
          <mxGeometry relative="1" as="geometry" />
        </mxCell>
        <mxCell id="pY1jZxHgJ3CI3KXNFTr0-284" value="$$1$$" style="text;html=1;align=center;verticalAlign=middle;whiteSpace=wrap;rounded=0;fontSize=14;" parent="1" vertex="1">
          <mxGeometry x="2250" y="135" width="20" height="30" as="geometry" />
        </mxCell>
        <mxCell id="tjQHPkJ3rP1CHwiMBpwy-102" style="edgeStyle=orthogonalEdgeStyle;rounded=0;orthogonalLoop=1;jettySize=auto;html=1;entryX=0;entryY=0.75;entryDx=0;entryDy=0;" parent="1" source="tjQHPkJ3rP1CHwiMBpwy-76" target="pY1jZxHgJ3CI3KXNFTr0-93" edge="1">
          <mxGeometry relative="1" as="geometry">
            <Array as="points">
              <mxPoint x="1700" y="190" />
            </Array>
          </mxGeometry>
        </mxCell>
        <mxCell id="tjQHPkJ3rP1CHwiMBpwy-76" value="$$\mathbf{x}_{T}$$" style="ellipse;whiteSpace=wrap;html=1;aspect=fixed;fontSize=18;fillColor=default;" parent="1" vertex="1">
          <mxGeometry x="1680" y="80" width="40" height="40" as="geometry" />
        </mxCell>
        <mxCell id="tjQHPkJ3rP1CHwiMBpwy-83" value="" style="edgeStyle=orthogonalEdgeStyle;rounded=0;orthogonalLoop=1;jettySize=auto;html=1;entryX=1;entryY=0.5;entryDx=0;entryDy=0;fillColor=#dae8fc;strokeColor=#6c8ebf;strokeWidth=2;" parent="1" source="tjQHPkJ3rP1CHwiMBpwy-92" target="tjQHPkJ3rP1CHwiMBpwy-76" edge="1">
          <mxGeometry relative="1" as="geometry" />
        </mxCell>
        <mxCell id="tjQHPkJ3rP1CHwiMBpwy-112" style="edgeStyle=orthogonalEdgeStyle;rounded=0;orthogonalLoop=1;jettySize=auto;html=1;entryX=0;entryY=0.75;entryDx=0;entryDy=0;exitX=0.5;exitY=0;exitDx=0;exitDy=0;" parent="1" source="yzG6jV1Aqq2Yb8oF7Ht_-1" target="pY1jZxHgJ3CI3KXNFTr0-71" edge="1">
          <mxGeometry relative="1" as="geometry">
            <Array as="points">
              <mxPoint x="1980" y="190" />
            </Array>
          </mxGeometry>
        </mxCell>
        <mxCell id="tjQHPkJ3rP1CHwiMBpwy-77" value="$$\mathbf{x}_{t}$$" style="ellipse;whiteSpace=wrap;html=1;aspect=fixed;fontSize=18;fillColor=default;" parent="1" vertex="1">
          <mxGeometry x="1960" y="80" width="40" height="40" as="geometry" />
        </mxCell>
        <mxCell id="tjQHPkJ3rP1CHwiMBpwy-82" style="edgeStyle=orthogonalEdgeStyle;rounded=0;orthogonalLoop=1;jettySize=auto;html=1;entryX=1;entryY=0.5;entryDx=0;entryDy=0;fillColor=#dae8fc;strokeColor=#6c8ebf;strokeWidth=2;" parent="1" source="tjQHPkJ3rP1CHwiMBpwy-78" target="tjQHPkJ3rP1CHwiMBpwy-77" edge="1">
          <mxGeometry relative="1" as="geometry" />
        </mxCell>
        <mxCell id="tjQHPkJ3rP1CHwiMBpwy-78" value="$$\mathbf{x}_{t-1}$$" style="ellipse;whiteSpace=wrap;html=1;aspect=fixed;fontSize=16;fillColor=default;" parent="1" vertex="1">
          <mxGeometry x="2059" y="80" width="40" height="40" as="geometry" />
        </mxCell>
        <mxCell id="tjQHPkJ3rP1CHwiMBpwy-81" value="&lt;span style=&quot;text-wrap: wrap; background-color: rgb(251, 251, 251);&quot;&gt;&lt;font style=&quot;font-size: 14px;&quot;&gt;$$...$$&lt;/font&gt;&lt;/span&gt;" style="edgeStyle=orthogonalEdgeStyle;rounded=0;orthogonalLoop=1;jettySize=auto;html=1;entryX=1;entryY=0.5;entryDx=0;entryDy=0;fillColor=#dae8fc;strokeColor=#6c8ebf;strokeWidth=2;" parent="1" source="tjQHPkJ3rP1CHwiMBpwy-84" target="tjQHPkJ3rP1CHwiMBpwy-78" edge="1">
          <mxGeometry relative="1" as="geometry" />
        </mxCell>
        <mxCell id="tjQHPkJ3rP1CHwiMBpwy-124" value="" style="edgeStyle=orthogonalEdgeStyle;rounded=0;orthogonalLoop=1;jettySize=auto;html=1;" parent="1" source="tjQHPkJ3rP1CHwiMBpwy-79" target="tjQHPkJ3rP1CHwiMBpwy-84" edge="1">
          <mxGeometry relative="1" as="geometry" />
        </mxCell>
        <mxCell id="tjQHPkJ3rP1CHwiMBpwy-79" value="$$\mathbf{x}_{0}$$" style="ellipse;whiteSpace=wrap;html=1;aspect=fixed;fontSize=18;fillColor=default;" parent="1" vertex="1">
          <mxGeometry x="2400" y="80" width="40" height="40" as="geometry" />
        </mxCell>
        <mxCell id="tjQHPkJ3rP1CHwiMBpwy-85" value="" style="edgeStyle=orthogonalEdgeStyle;rounded=0;orthogonalLoop=1;jettySize=auto;html=1;entryX=1;entryY=0.5;entryDx=0;entryDy=0;strokeWidth=2;fillColor=#dae8fc;strokeColor=#6c8ebf;" parent="1" source="tjQHPkJ3rP1CHwiMBpwy-86" target="tjQHPkJ3rP1CHwiMBpwy-84" edge="1">
          <mxGeometry relative="1" as="geometry">
            <mxPoint x="2340" y="100" as="sourcePoint" />
            <mxPoint x="2139" y="100" as="targetPoint" />
          </mxGeometry>
        </mxCell>
        <mxCell id="tjQHPkJ3rP1CHwiMBpwy-129" style="edgeStyle=orthogonalEdgeStyle;rounded=0;orthogonalLoop=1;jettySize=auto;html=1;entryX=0;entryY=0.75;entryDx=0;entryDy=0;exitX=0.5;exitY=0;exitDx=0;exitDy=0;" parent="1" source="yzG6jV1Aqq2Yb8oF7Ht_-9" target="pY1jZxHgJ3CI3KXNFTr0-84" edge="1">
          <mxGeometry relative="1" as="geometry">
            <Array as="points">
              <mxPoint x="2260" y="190" />
            </Array>
            <mxPoint x="2250" y="200" as="sourcePoint" />
          </mxGeometry>
        </mxCell>
        <mxCell id="tjQHPkJ3rP1CHwiMBpwy-84" value="$$\mathbf{x}_{1}$$" style="ellipse;whiteSpace=wrap;html=1;aspect=fixed;fontSize=18;fillColor=default;" parent="1" vertex="1">
          <mxGeometry x="2240" y="80" width="40" height="40" as="geometry" />
        </mxCell>
        <mxCell id="tjQHPkJ3rP1CHwiMBpwy-88" style="edgeStyle=orthogonalEdgeStyle;rounded=0;orthogonalLoop=1;jettySize=auto;html=1;entryX=0.5;entryY=0;entryDx=0;entryDy=0;" parent="1" source="tjQHPkJ3rP1CHwiMBpwy-87" target="tjQHPkJ3rP1CHwiMBpwy-86" edge="1">
          <mxGeometry relative="1" as="geometry" />
        </mxCell>
        <mxCell id="tjQHPkJ3rP1CHwiMBpwy-87" value="$$\epsilon_{1}$$" style="text;html=1;align=center;verticalAlign=middle;whiteSpace=wrap;rounded=0;fontSize=18;rotation=0;spacingTop=0;spacingRight=0;" parent="1" vertex="1">
          <mxGeometry x="2300" y="50" width="20" height="20" as="geometry" />
        </mxCell>
        <mxCell id="tjQHPkJ3rP1CHwiMBpwy-96" style="edgeStyle=orthogonalEdgeStyle;rounded=0;orthogonalLoop=1;jettySize=auto;html=1;entryX=0.5;entryY=0;entryDx=0;entryDy=0;" parent="1" source="tjQHPkJ3rP1CHwiMBpwy-89" target="tjQHPkJ3rP1CHwiMBpwy-92" edge="1">
          <mxGeometry relative="1" as="geometry" />
        </mxCell>
        <mxCell id="tjQHPkJ3rP1CHwiMBpwy-89" value="$$\epsilon_{T}$$" style="text;html=1;align=center;verticalAlign=middle;whiteSpace=wrap;rounded=0;fontSize=18;rotation=0;spacingTop=0;spacingRight=8;" parent="1" vertex="1">
          <mxGeometry x="1735" y="50" width="30" height="20" as="geometry" />
        </mxCell>
        <mxCell id="tjQHPkJ3rP1CHwiMBpwy-91" value="&lt;span style=&quot;text-wrap: wrap; background-color: rgb(251, 251, 251);&quot;&gt;&lt;font style=&quot;font-size: 14px;&quot;&gt;$$...$$&lt;/font&gt;&lt;/span&gt;" style="edgeStyle=orthogonalEdgeStyle;rounded=0;orthogonalLoop=1;jettySize=auto;html=1;entryX=1;entryY=0.5;entryDx=0;entryDy=0;fillColor=#dae8fc;strokeColor=#6c8ebf;strokeWidth=2;" parent="1" source="tjQHPkJ3rP1CHwiMBpwy-77" target="tjQHPkJ3rP1CHwiMBpwy-90" edge="1">
          <mxGeometry relative="1" as="geometry">
            <mxPoint x="1920" y="100" as="sourcePoint" />
            <mxPoint x="1720" y="100" as="targetPoint" />
          </mxGeometry>
        </mxCell>
        <mxCell id="tjQHPkJ3rP1CHwiMBpwy-90" value="$$\mathbf{x}_{T-1}$$" style="ellipse;whiteSpace=wrap;html=1;aspect=fixed;fontSize=14;fillColor=default;" parent="1" vertex="1">
          <mxGeometry x="1780" y="80" width="40" height="40" as="geometry" />
        </mxCell>
        <mxCell id="tjQHPkJ3rP1CHwiMBpwy-93" value="" style="edgeStyle=orthogonalEdgeStyle;rounded=0;orthogonalLoop=1;jettySize=auto;html=1;entryX=1;entryY=0.5;entryDx=0;entryDy=0;fillColor=#dae8fc;strokeColor=#6c8ebf;strokeWidth=2;" parent="1" source="tjQHPkJ3rP1CHwiMBpwy-90" target="tjQHPkJ3rP1CHwiMBpwy-92" edge="1">
          <mxGeometry relative="1" as="geometry">
            <mxPoint x="1780" y="100" as="sourcePoint" />
            <mxPoint x="1720" y="100" as="targetPoint" />
          </mxGeometry>
        </mxCell>
        <mxCell id="tjQHPkJ3rP1CHwiMBpwy-92" value="+" style="ellipse;whiteSpace=wrap;html=1;spacingTop=-2;" parent="1" vertex="1">
          <mxGeometry x="1740" y="90" width="20" height="20" as="geometry" />
        </mxCell>
        <mxCell id="tjQHPkJ3rP1CHwiMBpwy-97" value="+" style="ellipse;whiteSpace=wrap;html=1;spacingTop=-2;" parent="1" vertex="1">
          <mxGeometry x="2019.62" y="90" width="20" height="20" as="geometry" />
        </mxCell>
        <mxCell id="tjQHPkJ3rP1CHwiMBpwy-98" style="edgeStyle=orthogonalEdgeStyle;rounded=0;orthogonalLoop=1;jettySize=auto;html=1;entryX=0.5;entryY=0;entryDx=0;entryDy=0;exitX=0.5;exitY=1;exitDx=0;exitDy=0;" parent="1" source="tjQHPkJ3rP1CHwiMBpwy-99" target="tjQHPkJ3rP1CHwiMBpwy-97" edge="1">
          <mxGeometry relative="1" as="geometry">
            <mxPoint x="2029.62" y="140" as="sourcePoint" />
          </mxGeometry>
        </mxCell>
        <mxCell id="tjQHPkJ3rP1CHwiMBpwy-99" value="$$\epsilon_{t}$$" style="text;html=1;align=center;verticalAlign=middle;whiteSpace=wrap;rounded=0;fontSize=18;rotation=0;spacingTop=0;spacingRight=0;" parent="1" vertex="1">
          <mxGeometry x="2014.74" y="50" width="29.75" height="20" as="geometry" />
        </mxCell>
        <mxCell id="tjQHPkJ3rP1CHwiMBpwy-101" style="edgeStyle=orthogonalEdgeStyle;rounded=0;orthogonalLoop=1;jettySize=auto;html=1;entryX=0;entryY=0.5;entryDx=0;entryDy=0;" parent="1" source="pY1jZxHgJ3CI3KXNFTr0-99" target="pY1jZxHgJ3CI3KXNFTr0-109" edge="1">
          <mxGeometry relative="1" as="geometry" />
        </mxCell>
        <mxCell id="yzG6jV1Aqq2Yb8oF7Ht_-4" style="edgeStyle=orthogonalEdgeStyle;rounded=0;orthogonalLoop=1;jettySize=auto;html=1;entryX=0.5;entryY=1;entryDx=0;entryDy=0;" edge="1" parent="1" source="tjQHPkJ3rP1CHwiMBpwy-106" target="yzG6jV1Aqq2Yb8oF7Ht_-3">
          <mxGeometry relative="1" as="geometry" />
        </mxCell>
        <mxCell id="tjQHPkJ3rP1CHwiMBpwy-106" value="$$\hat{\mathbf{x}}_{T-1}$$" style="ellipse;whiteSpace=wrap;html=1;aspect=fixed;fontSize=14;fillColor=default;" parent="1" vertex="1">
          <mxGeometry x="1890" y="200" width="40" height="40" as="geometry" />
        </mxCell>
        <mxCell id="tjQHPkJ3rP1CHwiMBpwy-110" value="" style="edgeStyle=orthogonalEdgeStyle;rounded=0;orthogonalLoop=1;jettySize=auto;html=1;entryX=0;entryY=0.5;entryDx=0;entryDy=0;exitX=0.5;exitY=1;exitDx=0;exitDy=0;" parent="1" source="F7V0XHEb_DyPJBrBkUIh-94" target="tjQHPkJ3rP1CHwiMBpwy-109" edge="1">
          <mxGeometry relative="1" as="geometry">
            <mxPoint x="1700" y="120" as="sourcePoint" />
            <mxPoint x="1950" y="320" as="targetPoint" />
            <Array as="points">
              <mxPoint x="1700" y="220" />
            </Array>
          </mxGeometry>
        </mxCell>
        <mxCell id="tjQHPkJ3rP1CHwiMBpwy-111" style="edgeStyle=orthogonalEdgeStyle;rounded=0;orthogonalLoop=1;jettySize=auto;html=1;entryX=0;entryY=0.5;entryDx=0;entryDy=0;" parent="1" source="tjQHPkJ3rP1CHwiMBpwy-109" target="tjQHPkJ3rP1CHwiMBpwy-106" edge="1">
          <mxGeometry relative="1" as="geometry" />
        </mxCell>
        <mxCell id="tjQHPkJ3rP1CHwiMBpwy-109" value="-" style="ellipse;whiteSpace=wrap;html=1;spacingTop=-2;" parent="1" vertex="1">
          <mxGeometry x="1840" y="210" width="20" height="20" as="geometry" />
        </mxCell>
        <mxCell id="yzG6jV1Aqq2Yb8oF7Ht_-8" style="edgeStyle=orthogonalEdgeStyle;rounded=0;orthogonalLoop=1;jettySize=auto;html=1;entryX=0.5;entryY=1;entryDx=0;entryDy=0;" edge="1" parent="1" source="tjQHPkJ3rP1CHwiMBpwy-117" target="yzG6jV1Aqq2Yb8oF7Ht_-7">
          <mxGeometry relative="1" as="geometry" />
        </mxCell>
        <mxCell id="tjQHPkJ3rP1CHwiMBpwy-117" value="$$\hat{\mathbf{x}}_{t-1}$$" style="ellipse;whiteSpace=wrap;html=1;aspect=fixed;fontSize=16;fillColor=default;" parent="1" vertex="1">
          <mxGeometry x="2160" y="200" width="40" height="40" as="geometry" />
        </mxCell>
        <mxCell id="F7V0XHEb_DyPJBrBkUIh-4" style="edgeStyle=orthogonalEdgeStyle;rounded=0;orthogonalLoop=1;jettySize=auto;html=1;entryX=0;entryY=0.5;entryDx=0;entryDy=0;" parent="1" source="tjQHPkJ3rP1CHwiMBpwy-119" target="tjQHPkJ3rP1CHwiMBpwy-117" edge="1">
          <mxGeometry relative="1" as="geometry" />
        </mxCell>
        <mxCell id="tjQHPkJ3rP1CHwiMBpwy-119" value="-" style="ellipse;whiteSpace=wrap;html=1;spacingTop=-2;" parent="1" vertex="1">
          <mxGeometry x="2110" y="210" width="20" height="20" as="geometry" />
        </mxCell>
        <mxCell id="tjQHPkJ3rP1CHwiMBpwy-125" value="" style="edgeStyle=orthogonalEdgeStyle;rounded=0;orthogonalLoop=1;jettySize=auto;html=1;entryX=1;entryY=0.5;entryDx=0;entryDy=0;strokeWidth=2;fillColor=#dae8fc;strokeColor=#6c8ebf;" parent="1" source="tjQHPkJ3rP1CHwiMBpwy-79" target="tjQHPkJ3rP1CHwiMBpwy-86" edge="1">
          <mxGeometry relative="1" as="geometry">
            <mxPoint x="2340" y="100" as="sourcePoint" />
            <mxPoint x="2280" y="100" as="targetPoint" />
          </mxGeometry>
        </mxCell>
        <mxCell id="tjQHPkJ3rP1CHwiMBpwy-86" value="+" style="ellipse;whiteSpace=wrap;html=1;spacingTop=-2;" parent="1" vertex="1">
          <mxGeometry x="2300" y="90" width="20" height="20" as="geometry" />
        </mxCell>
        <mxCell id="F7V0XHEb_DyPJBrBkUIh-1" style="edgeStyle=orthogonalEdgeStyle;rounded=0;orthogonalLoop=1;jettySize=auto;html=1;entryX=0;entryY=0.5;entryDx=0;entryDy=0;" parent="1" source="pY1jZxHgJ3CI3KXNFTr0-90" target="pY1jZxHgJ3CI3KXNFTr0-115" edge="1">
          <mxGeometry relative="1" as="geometry" />
        </mxCell>
        <mxCell id="F7V0XHEb_DyPJBrBkUIh-2" style="edgeStyle=orthogonalEdgeStyle;rounded=0;orthogonalLoop=1;jettySize=auto;html=1;entryX=0;entryY=0.5;entryDx=0;entryDy=0;" parent="1" source="pY1jZxHgJ3CI3KXNFTr0-77" target="pY1jZxHgJ3CI3KXNFTr0-113" edge="1">
          <mxGeometry relative="1" as="geometry" />
        </mxCell>
        <mxCell id="F7V0XHEb_DyPJBrBkUIh-133" style="edgeStyle=orthogonalEdgeStyle;rounded=0;orthogonalLoop=1;jettySize=auto;html=1;exitX=0;exitY=1;exitDx=0;exitDy=0;entryX=0;entryY=0;entryDx=0;entryDy=0;" parent="1" source="F7V0XHEb_DyPJBrBkUIh-7" target="F7V0XHEb_DyPJBrBkUIh-30" edge="1">
          <mxGeometry relative="1" as="geometry" />
        </mxCell>
        <mxCell id="F7V0XHEb_DyPJBrBkUIh-7" value="$$\mathbf{x}_{T}$$" style="ellipse;whiteSpace=wrap;html=1;aspect=fixed;fontSize=18;fillColor=default;" parent="1" vertex="1">
          <mxGeometry x="1680" y="280" width="40" height="40" as="geometry" />
        </mxCell>
        <mxCell id="F7V0XHEb_DyPJBrBkUIh-8" value="" style="edgeStyle=orthogonalEdgeStyle;rounded=0;orthogonalLoop=1;jettySize=auto;html=1;entryX=1;entryY=0.5;entryDx=0;entryDy=0;strokeWidth=2;fillColor=#dae8fc;strokeColor=#6c8ebf;" parent="1" source="F7V0XHEb_DyPJBrBkUIh-24" target="F7V0XHEb_DyPJBrBkUIh-7" edge="1">
          <mxGeometry relative="1" as="geometry" />
        </mxCell>
        <mxCell id="F7V0XHEb_DyPJBrBkUIh-9" value="$$\mathbf{x}_{t}$$" style="ellipse;whiteSpace=wrap;html=1;aspect=fixed;fontSize=18;fillColor=default;" parent="1" vertex="1">
          <mxGeometry x="1960" y="280" width="40" height="40" as="geometry" />
        </mxCell>
        <mxCell id="F7V0XHEb_DyPJBrBkUIh-10" style="edgeStyle=orthogonalEdgeStyle;rounded=0;orthogonalLoop=1;jettySize=auto;html=1;entryX=1;entryY=0.5;entryDx=0;entryDy=0;strokeWidth=2;fillColor=#dae8fc;strokeColor=#6c8ebf;" parent="1" source="F7V0XHEb_DyPJBrBkUIh-11" target="F7V0XHEb_DyPJBrBkUIh-9" edge="1">
          <mxGeometry relative="1" as="geometry" />
        </mxCell>
        <mxCell id="F7V0XHEb_DyPJBrBkUIh-11" value="$$\mathbf{x}_{t-1}$$" style="ellipse;whiteSpace=wrap;html=1;aspect=fixed;fontSize=16;fillColor=default;" parent="1" vertex="1">
          <mxGeometry x="2059" y="280" width="40" height="40" as="geometry" />
        </mxCell>
        <mxCell id="F7V0XHEb_DyPJBrBkUIh-12" value="&lt;span style=&quot;text-wrap: wrap; background-color: rgb(251, 251, 251);&quot;&gt;&lt;font style=&quot;font-size: 14px;&quot;&gt;$$...$$&lt;/font&gt;&lt;/span&gt;" style="edgeStyle=orthogonalEdgeStyle;rounded=0;orthogonalLoop=1;jettySize=auto;html=1;entryX=1;entryY=0.5;entryDx=0;entryDy=0;strokeWidth=2;fillColor=#dae8fc;strokeColor=#6c8ebf;" parent="1" source="F7V0XHEb_DyPJBrBkUIh-16" target="F7V0XHEb_DyPJBrBkUIh-11" edge="1">
          <mxGeometry relative="1" as="geometry" />
        </mxCell>
        <mxCell id="F7V0XHEb_DyPJBrBkUIh-13" value="" style="edgeStyle=orthogonalEdgeStyle;rounded=0;orthogonalLoop=1;jettySize=auto;html=1;" parent="1" source="F7V0XHEb_DyPJBrBkUIh-14" target="F7V0XHEb_DyPJBrBkUIh-16" edge="1">
          <mxGeometry relative="1" as="geometry" />
        </mxCell>
        <mxCell id="F7V0XHEb_DyPJBrBkUIh-14" value="$$\mathbf{x}_{0}$$" style="ellipse;whiteSpace=wrap;html=1;aspect=fixed;fontSize=18;fillColor=default;" parent="1" vertex="1">
          <mxGeometry x="2400" y="280" width="40" height="40" as="geometry" />
        </mxCell>
        <mxCell id="F7V0XHEb_DyPJBrBkUIh-15" value="" style="edgeStyle=orthogonalEdgeStyle;rounded=0;orthogonalLoop=1;jettySize=auto;html=1;entryX=1;entryY=0.5;entryDx=0;entryDy=0;strokeWidth=2;fillColor=#dae8fc;strokeColor=#6c8ebf;" parent="1" source="F7V0XHEb_DyPJBrBkUIh-29" target="F7V0XHEb_DyPJBrBkUIh-16" edge="1">
          <mxGeometry relative="1" as="geometry">
            <mxPoint x="2340" y="300" as="sourcePoint" />
            <mxPoint x="2139" y="300" as="targetPoint" />
          </mxGeometry>
        </mxCell>
        <mxCell id="F7V0XHEb_DyPJBrBkUIh-16" value="$$\mathbf{x}_{1}$$" style="ellipse;whiteSpace=wrap;html=1;aspect=fixed;fontSize=18;fillColor=default;" parent="1" vertex="1">
          <mxGeometry x="2240" y="280" width="40" height="40" as="geometry" />
        </mxCell>
        <mxCell id="F7V0XHEb_DyPJBrBkUIh-17" style="edgeStyle=orthogonalEdgeStyle;rounded=0;orthogonalLoop=1;jettySize=auto;html=1;entryX=0.5;entryY=0;entryDx=0;entryDy=0;" parent="1" source="F7V0XHEb_DyPJBrBkUIh-18" target="F7V0XHEb_DyPJBrBkUIh-29" edge="1">
          <mxGeometry relative="1" as="geometry" />
        </mxCell>
        <mxCell id="F7V0XHEb_DyPJBrBkUIh-18" value="$$\epsilon_{1}$$" style="text;html=1;align=center;verticalAlign=middle;whiteSpace=wrap;rounded=0;fontSize=18;rotation=0;spacingTop=0;spacingRight=0;" parent="1" vertex="1">
          <mxGeometry x="2300" y="250" width="20" height="20" as="geometry" />
        </mxCell>
        <mxCell id="F7V0XHEb_DyPJBrBkUIh-19" style="edgeStyle=orthogonalEdgeStyle;rounded=0;orthogonalLoop=1;jettySize=auto;html=1;entryX=0.5;entryY=0;entryDx=0;entryDy=0;" parent="1" source="F7V0XHEb_DyPJBrBkUIh-20" target="F7V0XHEb_DyPJBrBkUIh-24" edge="1">
          <mxGeometry relative="1" as="geometry" />
        </mxCell>
        <mxCell id="F7V0XHEb_DyPJBrBkUIh-20" value="$$\epsilon_{T}$$" style="text;html=1;align=center;verticalAlign=middle;whiteSpace=wrap;rounded=0;fontSize=18;rotation=0;spacingTop=0;spacingRight=8;" parent="1" vertex="1">
          <mxGeometry x="1735" y="250" width="30" height="20" as="geometry" />
        </mxCell>
        <mxCell id="F7V0XHEb_DyPJBrBkUIh-21" value="&lt;span style=&quot;text-wrap: wrap; background-color: rgb(251, 251, 251);&quot;&gt;&lt;font style=&quot;font-size: 14px;&quot;&gt;$$...$$&lt;/font&gt;&lt;/span&gt;" style="edgeStyle=orthogonalEdgeStyle;rounded=0;orthogonalLoop=1;jettySize=auto;html=1;entryX=1;entryY=0.5;entryDx=0;entryDy=0;strokeWidth=2;fillColor=#dae8fc;strokeColor=#6c8ebf;" parent="1" source="F7V0XHEb_DyPJBrBkUIh-9" target="F7V0XHEb_DyPJBrBkUIh-22" edge="1">
          <mxGeometry relative="1" as="geometry">
            <mxPoint x="1920" y="300" as="sourcePoint" />
            <mxPoint x="1720" y="300" as="targetPoint" />
          </mxGeometry>
        </mxCell>
        <mxCell id="F7V0XHEb_DyPJBrBkUIh-22" value="$$\mathbf{x}_{T-1}$$" style="ellipse;whiteSpace=wrap;html=1;aspect=fixed;fontSize=14;fillColor=default;" parent="1" vertex="1">
          <mxGeometry x="1780" y="280" width="40" height="40" as="geometry" />
        </mxCell>
        <mxCell id="F7V0XHEb_DyPJBrBkUIh-23" value="" style="edgeStyle=orthogonalEdgeStyle;rounded=0;orthogonalLoop=1;jettySize=auto;html=1;entryX=1;entryY=0.5;entryDx=0;entryDy=0;strokeWidth=2;fillColor=#dae8fc;strokeColor=#6c8ebf;" parent="1" source="F7V0XHEb_DyPJBrBkUIh-22" target="F7V0XHEb_DyPJBrBkUIh-24" edge="1">
          <mxGeometry relative="1" as="geometry">
            <mxPoint x="1780" y="300" as="sourcePoint" />
            <mxPoint x="1720" y="300" as="targetPoint" />
          </mxGeometry>
        </mxCell>
        <mxCell id="F7V0XHEb_DyPJBrBkUIh-24" value="+" style="ellipse;whiteSpace=wrap;html=1;spacingTop=-2;" parent="1" vertex="1">
          <mxGeometry x="1740" y="290" width="20" height="20" as="geometry" />
        </mxCell>
        <mxCell id="F7V0XHEb_DyPJBrBkUIh-25" value="+" style="ellipse;whiteSpace=wrap;html=1;spacingTop=-2;" parent="1" vertex="1">
          <mxGeometry x="2019.62" y="290" width="20" height="20" as="geometry" />
        </mxCell>
        <mxCell id="F7V0XHEb_DyPJBrBkUIh-26" style="edgeStyle=orthogonalEdgeStyle;rounded=0;orthogonalLoop=1;jettySize=auto;html=1;entryX=0.5;entryY=0;entryDx=0;entryDy=0;exitX=0.5;exitY=1;exitDx=0;exitDy=0;" parent="1" source="F7V0XHEb_DyPJBrBkUIh-27" target="F7V0XHEb_DyPJBrBkUIh-25" edge="1">
          <mxGeometry relative="1" as="geometry">
            <mxPoint x="2029.62" y="340" as="sourcePoint" />
          </mxGeometry>
        </mxCell>
        <mxCell id="F7V0XHEb_DyPJBrBkUIh-27" value="$$\epsilon_{t}$$" style="text;html=1;align=center;verticalAlign=middle;whiteSpace=wrap;rounded=0;fontSize=18;rotation=0;spacingTop=0;spacingRight=0;" parent="1" vertex="1">
          <mxGeometry x="2014.74" y="250" width="29.75" height="20" as="geometry" />
        </mxCell>
        <mxCell id="F7V0XHEb_DyPJBrBkUIh-28" value="" style="edgeStyle=orthogonalEdgeStyle;rounded=0;orthogonalLoop=1;jettySize=auto;html=1;entryX=1;entryY=0.5;entryDx=0;entryDy=0;strokeWidth=2;fillColor=#dae8fc;strokeColor=#6c8ebf;" parent="1" source="F7V0XHEb_DyPJBrBkUIh-14" target="F7V0XHEb_DyPJBrBkUIh-29" edge="1">
          <mxGeometry relative="1" as="geometry">
            <mxPoint x="2340" y="300" as="sourcePoint" />
            <mxPoint x="2280" y="300" as="targetPoint" />
          </mxGeometry>
        </mxCell>
        <mxCell id="F7V0XHEb_DyPJBrBkUIh-29" value="+" style="ellipse;whiteSpace=wrap;html=1;spacingTop=-2;" parent="1" vertex="1">
          <mxGeometry x="2300" y="290" width="20" height="20" as="geometry" />
        </mxCell>
        <mxCell id="F7V0XHEb_DyPJBrBkUIh-56" style="edgeStyle=orthogonalEdgeStyle;rounded=0;orthogonalLoop=1;jettySize=auto;html=1;entryX=0;entryY=0.75;entryDx=0;entryDy=0;" parent="1" source="F7V0XHEb_DyPJBrBkUIh-30" target="F7V0XHEb_DyPJBrBkUIh-49" edge="1">
          <mxGeometry relative="1" as="geometry" />
        </mxCell>
        <mxCell id="F7V0XHEb_DyPJBrBkUIh-30" value="$$\mathbf{x}_{T}$$" style="ellipse;whiteSpace=wrap;html=1;aspect=fixed;fontSize=18;fillColor=default;" parent="1" vertex="1">
          <mxGeometry x="1680" y="370" width="40" height="40" as="geometry" />
        </mxCell>
        <mxCell id="F7V0XHEb_DyPJBrBkUIh-57" style="edgeStyle=orthogonalEdgeStyle;rounded=0;orthogonalLoop=1;jettySize=auto;html=1;entryX=0;entryY=0.25;entryDx=0;entryDy=0;" parent="1" source="F7V0XHEb_DyPJBrBkUIh-44" target="F7V0XHEb_DyPJBrBkUIh-49" edge="1">
          <mxGeometry relative="1" as="geometry" />
        </mxCell>
        <mxCell id="F7V0XHEb_DyPJBrBkUIh-44" value="$$T$$" style="text;html=1;align=center;verticalAlign=middle;whiteSpace=wrap;rounded=0;fontSize=14;" parent="1" vertex="1">
          <mxGeometry x="1710" y="335" width="20" height="30" as="geometry" />
        </mxCell>
        <mxCell id="F7V0XHEb_DyPJBrBkUIh-48" value="&#xa;" style="group" parent="1" vertex="1" connectable="0">
          <mxGeometry x="1760" y="330" width="70" height="80" as="geometry" />
        </mxCell>
        <mxCell id="F7V0XHEb_DyPJBrBkUIh-49" value="" style="rounded=0;whiteSpace=wrap;html=1;fillColor=#f8cecc;strokeColor=#b85450;" parent="F7V0XHEb_DyPJBrBkUIh-48" vertex="1">
          <mxGeometry width="10" height="80" as="geometry" />
        </mxCell>
        <mxCell id="F7V0XHEb_DyPJBrBkUIh-50" value="" style="rounded=0;whiteSpace=wrap;html=1;fillColor=#f8cecc;strokeColor=#b85450;" parent="F7V0XHEb_DyPJBrBkUIh-48" vertex="1">
          <mxGeometry x="10" y="10" width="10" height="60" as="geometry" />
        </mxCell>
        <mxCell id="F7V0XHEb_DyPJBrBkUIh-51" value="" style="rounded=0;whiteSpace=wrap;html=1;fillColor=#f8cecc;strokeColor=#b85450;" parent="F7V0XHEb_DyPJBrBkUIh-48" vertex="1">
          <mxGeometry x="20" y="20" width="10" height="40" as="geometry" />
        </mxCell>
        <mxCell id="F7V0XHEb_DyPJBrBkUIh-52" value="" style="rounded=0;whiteSpace=wrap;html=1;fillColor=#f8cecc;strokeColor=#b85450;" parent="F7V0XHEb_DyPJBrBkUIh-48" vertex="1">
          <mxGeometry x="30" y="30" width="10" height="20" as="geometry" />
        </mxCell>
        <mxCell id="F7V0XHEb_DyPJBrBkUIh-53" value="" style="rounded=0;whiteSpace=wrap;html=1;fillColor=#f8cecc;strokeColor=#b85450;" parent="F7V0XHEb_DyPJBrBkUIh-48" vertex="1">
          <mxGeometry x="40" y="20" width="10" height="40" as="geometry" />
        </mxCell>
        <mxCell id="F7V0XHEb_DyPJBrBkUIh-54" value="" style="rounded=0;whiteSpace=wrap;html=1;fillColor=#f8cecc;strokeColor=#b85450;" parent="F7V0XHEb_DyPJBrBkUIh-48" vertex="1">
          <mxGeometry x="50" y="10" width="10" height="60" as="geometry" />
        </mxCell>
        <mxCell id="F7V0XHEb_DyPJBrBkUIh-55" value="" style="rounded=0;whiteSpace=wrap;html=1;fillColor=#f8cecc;strokeColor=#b85450;" parent="F7V0XHEb_DyPJBrBkUIh-48" vertex="1">
          <mxGeometry x="60" width="10" height="80" as="geometry" />
        </mxCell>
        <mxCell id="F7V0XHEb_DyPJBrBkUIh-68" style="edgeStyle=orthogonalEdgeStyle;rounded=0;orthogonalLoop=1;jettySize=auto;html=1;entryX=1;entryY=0.5;entryDx=0;entryDy=0;exitX=0.5;exitY=1;exitDx=0;exitDy=0;strokeWidth=2;fillColor=#dae8fc;strokeColor=#6c8ebf;" parent="1" source="F7V0XHEb_DyPJBrBkUIh-60" target="F7V0XHEb_DyPJBrBkUIh-67" edge="1">
          <mxGeometry relative="1" as="geometry">
            <Array as="points">
              <mxPoint x="2420" y="410" />
            </Array>
          </mxGeometry>
        </mxCell>
        <mxCell id="F7V0XHEb_DyPJBrBkUIh-60" value="$$\hat{\mathbf{x}}^{(T)}_{0}$$" style="ellipse;whiteSpace=wrap;html=1;aspect=fixed;fontSize=16;fillColor=default;" parent="1" vertex="1">
          <mxGeometry x="2400" y="350" width="40" height="40" as="geometry" />
        </mxCell>
        <mxCell id="F7V0XHEb_DyPJBrBkUIh-63" value="" style="edgeStyle=orthogonalEdgeStyle;rounded=0;orthogonalLoop=1;jettySize=auto;html=1;entryX=1;entryY=0.5;entryDx=0;entryDy=0;strokeWidth=2;fillColor=#dae8fc;strokeColor=#6c8ebf;" parent="1" source="F7V0XHEb_DyPJBrBkUIh-67" target="F7V0XHEb_DyPJBrBkUIh-64" edge="1">
          <mxGeometry relative="1" as="geometry">
            <mxPoint x="2400" y="310" as="sourcePoint" />
            <mxPoint x="2199" y="310" as="targetPoint" />
          </mxGeometry>
        </mxCell>
        <mxCell id="F7V0XHEb_DyPJBrBkUIh-70" value="$$\cdots$$" style="edgeStyle=orthogonalEdgeStyle;rounded=0;orthogonalLoop=1;jettySize=auto;html=1;entryX=1;entryY=0.5;entryDx=0;entryDy=0;fontSize=14;strokeWidth=2;fillColor=#dae8fc;strokeColor=#6c8ebf;" parent="1" source="F7V0XHEb_DyPJBrBkUIh-64" target="F7V0XHEb_DyPJBrBkUIh-69" edge="1">
          <mxGeometry relative="1" as="geometry" />
        </mxCell>
        <mxCell id="F7V0XHEb_DyPJBrBkUIh-64" value="$$\hat{\mathbf{x}}_{1}$$" style="ellipse;whiteSpace=wrap;html=1;aspect=fixed;fontSize=18;fillColor=default;" parent="1" vertex="1">
          <mxGeometry x="2310" y="390" width="40" height="40" as="geometry" />
        </mxCell>
        <mxCell id="F7V0XHEb_DyPJBrBkUIh-77" style="edgeStyle=orthogonalEdgeStyle;rounded=0;orthogonalLoop=1;jettySize=auto;html=1;entryX=0.5;entryY=1;entryDx=0;entryDy=0;" parent="1" source="F7V0XHEb_DyPJBrBkUIh-66" target="F7V0XHEb_DyPJBrBkUIh-67" edge="1">
          <mxGeometry relative="1" as="geometry" />
        </mxCell>
        <mxCell id="F7V0XHEb_DyPJBrBkUIh-66" value="$$\epsilon_{1}$$" style="text;html=1;align=center;verticalAlign=middle;whiteSpace=wrap;rounded=0;fontSize=18;rotation=0;spacingTop=0;spacingRight=0;" parent="1" vertex="1">
          <mxGeometry x="2370" y="440" width="20" height="20" as="geometry" />
        </mxCell>
        <mxCell id="F7V0XHEb_DyPJBrBkUIh-67" value="+" style="ellipse;whiteSpace=wrap;html=1;spacingTop=-2;" parent="1" vertex="1">
          <mxGeometry x="2370" y="400" width="20" height="20" as="geometry" />
        </mxCell>
        <mxCell id="F7V0XHEb_DyPJBrBkUIh-93" style="edgeStyle=orthogonalEdgeStyle;rounded=0;orthogonalLoop=1;jettySize=auto;html=1;entryX=0;entryY=0.5;entryDx=0;entryDy=0;" parent="1" source="F7V0XHEb_DyPJBrBkUIh-69" target="F7V0XHEb_DyPJBrBkUIh-90" edge="1">
          <mxGeometry relative="1" as="geometry">
            <Array as="points">
              <mxPoint x="1860" y="450" />
            </Array>
          </mxGeometry>
        </mxCell>
        <mxCell id="F7V0XHEb_DyPJBrBkUIh-69" value="$$\hat{\mathbf{x}}_{T-1}$$" style="ellipse;whiteSpace=wrap;html=1;aspect=fixed;fontSize=14;fillColor=default;" parent="1" vertex="1">
          <mxGeometry x="1840" y="390" width="40" height="40" as="geometry" />
        </mxCell>
        <mxCell id="F7V0XHEb_DyPJBrBkUIh-75" style="edgeStyle=orthogonalEdgeStyle;rounded=0;orthogonalLoop=1;jettySize=auto;html=1;entryX=0;entryY=0.5;entryDx=0;entryDy=0;" parent="1" source="F7V0XHEb_DyPJBrBkUIh-55" target="F7V0XHEb_DyPJBrBkUIh-60" edge="1">
          <mxGeometry relative="1" as="geometry" />
        </mxCell>
        <mxCell id="F7V0XHEb_DyPJBrBkUIh-78" style="edgeStyle=orthogonalEdgeStyle;rounded=0;orthogonalLoop=1;jettySize=auto;html=1;entryX=0;entryY=0.75;entryDx=0;entryDy=0;" parent="1" source="F7V0XHEb_DyPJBrBkUIh-79" target="F7V0XHEb_DyPJBrBkUIh-83" edge="1">
          <mxGeometry relative="1" as="geometry" />
        </mxCell>
        <mxCell id="F7V0XHEb_DyPJBrBkUIh-79" value="$$\hat{\mathbf{x}}_{t}$$" style="ellipse;whiteSpace=wrap;html=1;aspect=fixed;fontSize=18;fillColor=default;" parent="1" vertex="1">
          <mxGeometry x="1960" y="470" width="40" height="40" as="geometry" />
        </mxCell>
        <mxCell id="F7V0XHEb_DyPJBrBkUIh-80" style="edgeStyle=orthogonalEdgeStyle;rounded=0;orthogonalLoop=1;jettySize=auto;html=1;entryX=0;entryY=0.25;entryDx=0;entryDy=0;" parent="1" source="F7V0XHEb_DyPJBrBkUIh-81" target="F7V0XHEb_DyPJBrBkUIh-83" edge="1">
          <mxGeometry relative="1" as="geometry" />
        </mxCell>
        <mxCell id="F7V0XHEb_DyPJBrBkUIh-81" value="$$t$$" style="text;html=1;align=center;verticalAlign=middle;whiteSpace=wrap;rounded=0;fontSize=14;" parent="1" vertex="1">
          <mxGeometry x="1970" y="435" width="20" height="30" as="geometry" />
        </mxCell>
        <mxCell id="F7V0XHEb_DyPJBrBkUIh-82" value="&#xa;" style="group" parent="1" vertex="1" connectable="0">
          <mxGeometry x="2020" y="430" width="70" height="80" as="geometry" />
        </mxCell>
        <mxCell id="F7V0XHEb_DyPJBrBkUIh-83" value="" style="rounded=0;whiteSpace=wrap;html=1;fillColor=#f8cecc;strokeColor=#b85450;" parent="F7V0XHEb_DyPJBrBkUIh-82" vertex="1">
          <mxGeometry width="10" height="80" as="geometry" />
        </mxCell>
        <mxCell id="F7V0XHEb_DyPJBrBkUIh-84" value="" style="rounded=0;whiteSpace=wrap;html=1;fillColor=#f8cecc;strokeColor=#b85450;" parent="F7V0XHEb_DyPJBrBkUIh-82" vertex="1">
          <mxGeometry x="10" y="10" width="10" height="60" as="geometry" />
        </mxCell>
        <mxCell id="F7V0XHEb_DyPJBrBkUIh-85" value="" style="rounded=0;whiteSpace=wrap;html=1;fillColor=#f8cecc;strokeColor=#b85450;" parent="F7V0XHEb_DyPJBrBkUIh-82" vertex="1">
          <mxGeometry x="20" y="20" width="10" height="40" as="geometry" />
        </mxCell>
        <mxCell id="F7V0XHEb_DyPJBrBkUIh-86" value="" style="rounded=0;whiteSpace=wrap;html=1;fillColor=#f8cecc;strokeColor=#b85450;" parent="F7V0XHEb_DyPJBrBkUIh-82" vertex="1">
          <mxGeometry x="30" y="30" width="10" height="20" as="geometry" />
        </mxCell>
        <mxCell id="F7V0XHEb_DyPJBrBkUIh-87" value="" style="rounded=0;whiteSpace=wrap;html=1;fillColor=#f8cecc;strokeColor=#b85450;" parent="F7V0XHEb_DyPJBrBkUIh-82" vertex="1">
          <mxGeometry x="40" y="20" width="10" height="40" as="geometry" />
        </mxCell>
        <mxCell id="F7V0XHEb_DyPJBrBkUIh-88" value="" style="rounded=0;whiteSpace=wrap;html=1;fillColor=#f8cecc;strokeColor=#b85450;" parent="F7V0XHEb_DyPJBrBkUIh-82" vertex="1">
          <mxGeometry x="50" y="10" width="10" height="60" as="geometry" />
        </mxCell>
        <mxCell id="F7V0XHEb_DyPJBrBkUIh-89" value="" style="rounded=0;whiteSpace=wrap;html=1;fillColor=#f8cecc;strokeColor=#b85450;" parent="F7V0XHEb_DyPJBrBkUIh-82" vertex="1">
          <mxGeometry x="60" width="10" height="80" as="geometry" />
        </mxCell>
        <mxCell id="F7V0XHEb_DyPJBrBkUIh-92" style="edgeStyle=orthogonalEdgeStyle;rounded=0;orthogonalLoop=1;jettySize=auto;html=1;entryX=0;entryY=0.5;entryDx=0;entryDy=0;" parent="1" source="F7V0XHEb_DyPJBrBkUIh-90" target="F7V0XHEb_DyPJBrBkUIh-79" edge="1">
          <mxGeometry relative="1" as="geometry" />
        </mxCell>
        <mxCell id="F7V0XHEb_DyPJBrBkUIh-90" value="$$\dots$$" style="rounded=0;whiteSpace=wrap;html=1;strokeColor=none;" parent="1" vertex="1">
          <mxGeometry x="1880" y="435" width="40" height="30" as="geometry" />
        </mxCell>
        <mxCell id="F7V0XHEb_DyPJBrBkUIh-95" value="" style="edgeStyle=orthogonalEdgeStyle;rounded=0;orthogonalLoop=1;jettySize=auto;html=1;entryX=0;entryY=0;entryDx=0;entryDy=0;exitX=0;exitY=1;exitDx=0;exitDy=0;" parent="1" source="tjQHPkJ3rP1CHwiMBpwy-76" target="F7V0XHEb_DyPJBrBkUIh-94" edge="1">
          <mxGeometry relative="1" as="geometry">
            <mxPoint x="1700" y="120" as="sourcePoint" />
            <mxPoint x="1840" y="220" as="targetPoint" />
            <Array as="points" />
          </mxGeometry>
        </mxCell>
        <mxCell id="F7V0XHEb_DyPJBrBkUIh-94" value="$$\mathbf{x}_{T}$$" style="ellipse;whiteSpace=wrap;html=1;aspect=fixed;fontSize=18;fillColor=default;" parent="1" vertex="1">
          <mxGeometry x="1680" y="200" width="40" height="40" as="geometry" />
        </mxCell>
        <mxCell id="F7V0XHEb_DyPJBrBkUIh-96" value="$$\hat{\mathbf{x}}^{(t)}_{0}$$" style="ellipse;whiteSpace=wrap;html=1;aspect=fixed;fontSize=16;fillColor=default;" parent="1" vertex="1">
          <mxGeometry x="2400" y="450" width="40" height="40" as="geometry" />
        </mxCell>
        <mxCell id="F7V0XHEb_DyPJBrBkUIh-97" style="edgeStyle=orthogonalEdgeStyle;rounded=0;orthogonalLoop=1;jettySize=auto;html=1;entryX=0;entryY=0.5;entryDx=0;entryDy=0;" parent="1" source="F7V0XHEb_DyPJBrBkUIh-89" target="F7V0XHEb_DyPJBrBkUIh-96" edge="1">
          <mxGeometry relative="1" as="geometry" />
        </mxCell>
        <mxCell id="F7V0XHEb_DyPJBrBkUIh-98" style="edgeStyle=orthogonalEdgeStyle;rounded=0;orthogonalLoop=1;jettySize=auto;html=1;entryX=1;entryY=0.5;entryDx=0;entryDy=0;exitX=0.5;exitY=1;exitDx=0;exitDy=0;fillColor=#dae8fc;strokeColor=#6c8ebf;strokeWidth=2;" parent="1" source="F7V0XHEb_DyPJBrBkUIh-96" target="F7V0XHEb_DyPJBrBkUIh-104" edge="1">
          <mxGeometry relative="1" as="geometry">
            <mxPoint x="2430" y="530" as="sourcePoint" />
            <Array as="points">
              <mxPoint x="2420" y="510" />
            </Array>
          </mxGeometry>
        </mxCell>
        <mxCell id="F7V0XHEb_DyPJBrBkUIh-99" value="" style="edgeStyle=orthogonalEdgeStyle;rounded=0;orthogonalLoop=1;jettySize=auto;html=1;entryX=1;entryY=0.5;entryDx=0;entryDy=0;fillColor=#dae8fc;strokeColor=#6c8ebf;strokeWidth=2;" parent="1" source="F7V0XHEb_DyPJBrBkUIh-104" target="F7V0XHEb_DyPJBrBkUIh-101" edge="1">
          <mxGeometry relative="1" as="geometry">
            <mxPoint x="2409" y="410" as="sourcePoint" />
            <mxPoint x="2208" y="410" as="targetPoint" />
          </mxGeometry>
        </mxCell>
        <mxCell id="F7V0XHEb_DyPJBrBkUIh-100" value="$$\cdots$$" style="edgeStyle=orthogonalEdgeStyle;rounded=0;orthogonalLoop=1;jettySize=auto;html=1;entryX=1;entryY=0.5;entryDx=0;entryDy=0;fontSize=14;fillColor=#dae8fc;strokeColor=#6c8ebf;strokeWidth=2;" parent="1" source="F7V0XHEb_DyPJBrBkUIh-101" target="F7V0XHEb_DyPJBrBkUIh-106" edge="1">
          <mxGeometry relative="1" as="geometry" />
        </mxCell>
        <mxCell id="F7V0XHEb_DyPJBrBkUIh-101" value="$$\hat{\mathbf{x}}_{1}$$" style="ellipse;whiteSpace=wrap;html=1;aspect=fixed;fontSize=18;fillColor=default;" parent="1" vertex="1">
          <mxGeometry x="2314" y="490" width="40" height="40" as="geometry" />
        </mxCell>
        <mxCell id="F7V0XHEb_DyPJBrBkUIh-102" style="edgeStyle=orthogonalEdgeStyle;rounded=0;orthogonalLoop=1;jettySize=auto;html=1;entryX=0.5;entryY=1;entryDx=0;entryDy=0;" parent="1" source="F7V0XHEb_DyPJBrBkUIh-103" target="F7V0XHEb_DyPJBrBkUIh-104" edge="1">
          <mxGeometry relative="1" as="geometry" />
        </mxCell>
        <mxCell id="F7V0XHEb_DyPJBrBkUIh-103" value="$$\epsilon_{1}$$" style="text;html=1;align=center;verticalAlign=middle;whiteSpace=wrap;rounded=0;fontSize=18;rotation=0;spacingTop=0;spacingRight=0;" parent="1" vertex="1">
          <mxGeometry x="2369" y="540" width="20" height="20" as="geometry" />
        </mxCell>
        <mxCell id="F7V0XHEb_DyPJBrBkUIh-104" value="+" style="ellipse;whiteSpace=wrap;html=1;spacingTop=-2;" parent="1" vertex="1">
          <mxGeometry x="2369" y="500" width="20" height="20" as="geometry" />
        </mxCell>
        <mxCell id="F7V0XHEb_DyPJBrBkUIh-130" style="edgeStyle=orthogonalEdgeStyle;rounded=0;orthogonalLoop=1;jettySize=auto;html=1;entryX=0;entryY=0.5;entryDx=0;entryDy=0;exitX=0.5;exitY=1;exitDx=0;exitDy=0;" parent="1" source="F7V0XHEb_DyPJBrBkUIh-106" target="F7V0XHEb_DyPJBrBkUIh-112" edge="1">
          <mxGeometry relative="1" as="geometry">
            <Array as="points">
              <mxPoint x="2119" y="560" />
            </Array>
          </mxGeometry>
        </mxCell>
        <mxCell id="F7V0XHEb_DyPJBrBkUIh-106" value="$$\hat{\mathbf{x}}_{t-1}$$" style="ellipse;whiteSpace=wrap;html=1;aspect=fixed;fontSize=14;fillColor=default;" parent="1" vertex="1">
          <mxGeometry x="2099" y="490" width="40" height="40" as="geometry" />
        </mxCell>
        <mxCell id="F7V0XHEb_DyPJBrBkUIh-107" value="" style="edgeStyle=orthogonalEdgeStyle;rounded=0;orthogonalLoop=1;jettySize=auto;html=1;entryX=1;entryY=0.5;entryDx=0;entryDy=0;strokeWidth=2;fillColor=#dae8fc;strokeColor=#6c8ebf;" parent="1" source="F7V0XHEb_DyPJBrBkUIh-111" target="F7V0XHEb_DyPJBrBkUIh-108" edge="1">
          <mxGeometry relative="1" as="geometry">
            <mxPoint x="2300" y="310" as="sourcePoint" />
            <mxPoint x="2099" y="310" as="targetPoint" />
          </mxGeometry>
        </mxCell>
        <mxCell id="F7V0XHEb_DyPJBrBkUIh-108" value="$$\hat{\mathbf{x}}_{2}$$" style="ellipse;whiteSpace=wrap;html=1;aspect=fixed;fontSize=18;fillColor=default;" parent="1" vertex="1">
          <mxGeometry x="2210" y="390" width="40" height="40" as="geometry" />
        </mxCell>
        <mxCell id="F7V0XHEb_DyPJBrBkUIh-109" style="edgeStyle=orthogonalEdgeStyle;rounded=0;orthogonalLoop=1;jettySize=auto;html=1;entryX=0.5;entryY=1;entryDx=0;entryDy=0;" parent="1" source="F7V0XHEb_DyPJBrBkUIh-110" target="F7V0XHEb_DyPJBrBkUIh-111" edge="1">
          <mxGeometry relative="1" as="geometry" />
        </mxCell>
        <mxCell id="F7V0XHEb_DyPJBrBkUIh-110" value="$$\epsilon_{2}$$" style="text;html=1;align=center;verticalAlign=middle;whiteSpace=wrap;rounded=0;fontSize=18;rotation=0;spacingTop=0;spacingRight=0;" parent="1" vertex="1">
          <mxGeometry x="2270" y="440" width="20" height="20" as="geometry" />
        </mxCell>
        <mxCell id="F7V0XHEb_DyPJBrBkUIh-111" value="+" style="ellipse;whiteSpace=wrap;html=1;spacingTop=-2;" parent="1" vertex="1">
          <mxGeometry x="2270" y="400" width="20" height="20" as="geometry" />
        </mxCell>
        <mxCell id="F7V0XHEb_DyPJBrBkUIh-129" style="edgeStyle=orthogonalEdgeStyle;rounded=0;orthogonalLoop=1;jettySize=auto;html=1;entryX=0;entryY=0.5;entryDx=0;entryDy=0;" parent="1" source="F7V0XHEb_DyPJBrBkUIh-112" target="F7V0XHEb_DyPJBrBkUIh-114" edge="1">
          <mxGeometry relative="1" as="geometry" />
        </mxCell>
        <mxCell id="F7V0XHEb_DyPJBrBkUIh-112" value="$$\dots$$" style="rounded=0;whiteSpace=wrap;html=1;strokeColor=none;" parent="1" vertex="1">
          <mxGeometry x="2149" y="545" width="40" height="30" as="geometry" />
        </mxCell>
        <mxCell id="F7V0XHEb_DyPJBrBkUIh-113" style="edgeStyle=orthogonalEdgeStyle;rounded=0;orthogonalLoop=1;jettySize=auto;html=1;entryX=0;entryY=0.75;entryDx=0;entryDy=0;" parent="1" source="F7V0XHEb_DyPJBrBkUIh-114" target="F7V0XHEb_DyPJBrBkUIh-118" edge="1">
          <mxGeometry relative="1" as="geometry" />
        </mxCell>
        <mxCell id="F7V0XHEb_DyPJBrBkUIh-114" value="$$\hat{\mathbf{x}}_{1}$$" style="ellipse;whiteSpace=wrap;html=1;aspect=fixed;fontSize=18;fillColor=default;" parent="1" vertex="1">
          <mxGeometry x="2229" y="600" width="40" height="40" as="geometry" />
        </mxCell>
        <mxCell id="F7V0XHEb_DyPJBrBkUIh-115" style="edgeStyle=orthogonalEdgeStyle;rounded=0;orthogonalLoop=1;jettySize=auto;html=1;entryX=0;entryY=0.25;entryDx=0;entryDy=0;" parent="1" source="F7V0XHEb_DyPJBrBkUIh-116" target="F7V0XHEb_DyPJBrBkUIh-118" edge="1">
          <mxGeometry relative="1" as="geometry" />
        </mxCell>
        <mxCell id="F7V0XHEb_DyPJBrBkUIh-116" value="$$1$$" style="text;html=1;align=center;verticalAlign=middle;whiteSpace=wrap;rounded=0;fontSize=14;" parent="1" vertex="1">
          <mxGeometry x="2239" y="565" width="20" height="30" as="geometry" />
        </mxCell>
        <mxCell id="F7V0XHEb_DyPJBrBkUIh-117" value="&#xa;" style="group" parent="1" vertex="1" connectable="0">
          <mxGeometry x="2289" y="560" width="70" height="80" as="geometry" />
        </mxCell>
        <mxCell id="F7V0XHEb_DyPJBrBkUIh-118" value="" style="rounded=0;whiteSpace=wrap;html=1;fillColor=#f8cecc;strokeColor=#b85450;" parent="F7V0XHEb_DyPJBrBkUIh-117" vertex="1">
          <mxGeometry width="10" height="80" as="geometry" />
        </mxCell>
        <mxCell id="F7V0XHEb_DyPJBrBkUIh-119" value="" style="rounded=0;whiteSpace=wrap;html=1;fillColor=#f8cecc;strokeColor=#b85450;" parent="F7V0XHEb_DyPJBrBkUIh-117" vertex="1">
          <mxGeometry x="10" y="10" width="10" height="60" as="geometry" />
        </mxCell>
        <mxCell id="F7V0XHEb_DyPJBrBkUIh-120" value="" style="rounded=0;whiteSpace=wrap;html=1;fillColor=#f8cecc;strokeColor=#b85450;" parent="F7V0XHEb_DyPJBrBkUIh-117" vertex="1">
          <mxGeometry x="20" y="20" width="10" height="40" as="geometry" />
        </mxCell>
        <mxCell id="F7V0XHEb_DyPJBrBkUIh-121" value="" style="rounded=0;whiteSpace=wrap;html=1;fillColor=#f8cecc;strokeColor=#b85450;" parent="F7V0XHEb_DyPJBrBkUIh-117" vertex="1">
          <mxGeometry x="30" y="30" width="10" height="20" as="geometry" />
        </mxCell>
        <mxCell id="F7V0XHEb_DyPJBrBkUIh-122" value="" style="rounded=0;whiteSpace=wrap;html=1;fillColor=#f8cecc;strokeColor=#b85450;" parent="F7V0XHEb_DyPJBrBkUIh-117" vertex="1">
          <mxGeometry x="40" y="20" width="10" height="40" as="geometry" />
        </mxCell>
        <mxCell id="F7V0XHEb_DyPJBrBkUIh-123" value="" style="rounded=0;whiteSpace=wrap;html=1;fillColor=#f8cecc;strokeColor=#b85450;" parent="F7V0XHEb_DyPJBrBkUIh-117" vertex="1">
          <mxGeometry x="50" y="10" width="10" height="60" as="geometry" />
        </mxCell>
        <mxCell id="F7V0XHEb_DyPJBrBkUIh-124" value="" style="rounded=0;whiteSpace=wrap;html=1;fillColor=#f8cecc;strokeColor=#b85450;" parent="F7V0XHEb_DyPJBrBkUIh-117" vertex="1">
          <mxGeometry x="60" width="10" height="80" as="geometry" />
        </mxCell>
        <mxCell id="F7V0XHEb_DyPJBrBkUIh-125" value="$$\hat{\mathbf{x}}_{0}$$" style="ellipse;whiteSpace=wrap;html=1;aspect=fixed;fontSize=16;fillColor=default;" parent="1" vertex="1">
          <mxGeometry x="2399" y="580" width="40" height="40" as="geometry" />
        </mxCell>
        <mxCell id="F7V0XHEb_DyPJBrBkUIh-128" style="edgeStyle=orthogonalEdgeStyle;rounded=0;orthogonalLoop=1;jettySize=auto;html=1;entryX=0;entryY=0.5;entryDx=0;entryDy=0;" parent="1" source="F7V0XHEb_DyPJBrBkUIh-124" target="F7V0XHEb_DyPJBrBkUIh-125" edge="1">
          <mxGeometry relative="1" as="geometry" />
        </mxCell>
        <mxCell id="F7V0XHEb_DyPJBrBkUIh-138" value="" style="endArrow=none;html=1;rounded=0;strokeWidth=4;" parent="1" edge="1">
          <mxGeometry width="50" height="50" relative="1" as="geometry">
            <mxPoint x="1680" y="250" as="sourcePoint" />
            <mxPoint x="2440" y="250" as="targetPoint" />
          </mxGeometry>
        </mxCell>
        <mxCell id="yzG6jV1Aqq2Yb8oF7Ht_-5" style="edgeStyle=orthogonalEdgeStyle;rounded=0;orthogonalLoop=1;jettySize=auto;html=1;entryX=0;entryY=0.5;entryDx=0;entryDy=0;" edge="1" parent="1" source="yzG6jV1Aqq2Yb8oF7Ht_-1" target="tjQHPkJ3rP1CHwiMBpwy-119">
          <mxGeometry relative="1" as="geometry" />
        </mxCell>
        <mxCell id="yzG6jV1Aqq2Yb8oF7Ht_-1" value="$$\hat{\mathbf{x}}_{t}$$" style="ellipse;whiteSpace=wrap;html=1;aspect=fixed;fontSize=18;fillColor=default;" vertex="1" parent="1">
          <mxGeometry x="1960" y="200" width="40" height="40" as="geometry" />
        </mxCell>
        <mxCell id="yzG6jV1Aqq2Yb8oF7Ht_-6" style="edgeStyle=orthogonalEdgeStyle;rounded=0;orthogonalLoop=1;jettySize=auto;html=1;entryX=0;entryY=0.5;entryDx=0;entryDy=0;" edge="1" parent="1" source="yzG6jV1Aqq2Yb8oF7Ht_-3" target="yzG6jV1Aqq2Yb8oF7Ht_-1">
          <mxGeometry relative="1" as="geometry">
            <Array as="points">
              <mxPoint x="1940" y="158" />
              <mxPoint x="1940" y="220" />
            </Array>
          </mxGeometry>
        </mxCell>
        <mxCell id="yzG6jV1Aqq2Yb8oF7Ht_-3" value="&lt;span style=&quot;font-size: 14px;&quot;&gt;$$...$$&lt;/span&gt;" style="rounded=0;whiteSpace=wrap;html=1;spacingTop=-5;" vertex="1" parent="1">
          <mxGeometry x="1895" y="143" width="30" height="30" as="geometry" />
        </mxCell>
        <mxCell id="yzG6jV1Aqq2Yb8oF7Ht_-14" style="edgeStyle=orthogonalEdgeStyle;rounded=0;orthogonalLoop=1;jettySize=auto;html=1;entryX=0;entryY=0.5;entryDx=0;entryDy=0;" edge="1" parent="1" source="yzG6jV1Aqq2Yb8oF7Ht_-7" target="yzG6jV1Aqq2Yb8oF7Ht_-9">
          <mxGeometry relative="1" as="geometry" />
        </mxCell>
        <mxCell id="yzG6jV1Aqq2Yb8oF7Ht_-7" value="&lt;span style=&quot;font-size: 14px;&quot;&gt;$$...$$&lt;/span&gt;" style="rounded=0;whiteSpace=wrap;html=1;spacingTop=-5;" vertex="1" parent="1">
          <mxGeometry x="2165" y="143" width="30" height="30" as="geometry" />
        </mxCell>
        <mxCell id="yzG6jV1Aqq2Yb8oF7Ht_-10" style="edgeStyle=orthogonalEdgeStyle;rounded=0;orthogonalLoop=1;jettySize=auto;html=1;" edge="1" parent="1" source="yzG6jV1Aqq2Yb8oF7Ht_-9" target="pY1jZxHgJ3CI3KXNFTr0-150">
          <mxGeometry relative="1" as="geometry" />
        </mxCell>
        <mxCell id="yzG6jV1Aqq2Yb8oF7Ht_-9" value="$$\hat{\mathbf{x}}_{1}$$" style="ellipse;whiteSpace=wrap;html=1;aspect=fixed;fontSize=18;fillColor=default;" vertex="1" parent="1">
          <mxGeometry x="2240" y="200" width="40" height="40" as="geometry" />
        </mxCell>
        <mxCell id="yzG6jV1Aqq2Yb8oF7Ht_-12" value="-" style="ellipse;whiteSpace=wrap;html=1;spacingTop=-2;" vertex="1" parent="1">
          <mxGeometry x="2369" y="210" width="20" height="20" as="geometry" />
        </mxCell>
      </root>
    </mxGraphModel>
  </diagram>
</mxfile>
